<svg xmlns="http://www.w3.org/2000/svg" viewBox="0 0 53.09 67.59"><defs><style>.cls-1{fill:#f491a3;}</style></defs><g id="Layer_2" data-name="Layer 2"><g id="Layer_1-2" data-name="Layer 1"><path class="cls-1" d="M34.42,37.34H33.8A33.83,33.83,0,0,1,0,3.55V0H34.42a18.67,18.67,0,0,1,0,37.34ZM7.33,7.1A26.74,26.74,0,0,0,33.8,30.25h.62a11.58,11.58,0,1,0,0-23.15Z"/><path class="cls-1" d="M34.42,67.59H0V64.05a33.83,33.83,0,0,1,33.8-33.8h.62a18.67,18.67,0,0,1,0,37.34ZM7.33,60.5H34.42a11.58,11.58,0,0,0,0-23.16H33.8A26.75,26.75,0,0,0,7.33,60.5Z"/><path class="cls-1" d="M4.74,67.59c-.45,0-.89,0-1.33,0l.28-7.09q.52,0,1.05,0a26.7,26.7,0,1,0,0-53.4l-1.06,0L3.41,0c.44,0,.88,0,1.33,0a33.8,33.8,0,1,1,0,67.59Z"/></g></g></svg>